<svg xmlns="http://www.w3.org/2000/svg" xmlns:xlink="http://www.w3.org/1999/xlink" contentstyletype="text/css" height="291.0417px" preserveAspectRatio="none" style="width:376px;height:291px;background:#FFFFFF;" version="1.1" viewBox="0 0 376 291" width="376.9792px" zoomAndPan="magnify"><defs></defs><g><polygon fill="none" points="118.525,22.9167,118.525,23.1575,130.4,22.4419,142.275,23.1381,154.15,23.3746,166.025,22.0992,177.9,22.8276,189.775,22.428,201.65,22.4772,213.525,22.8386,225.4,22.1245,237.275,23.551,249.15,22.9167,249.0578,22.6943,249.7692,23.1154,250.5095,23.6061,251.082,23.6919,251.7527,24.0147,252.3909,24.2591,252.3796,24.2544,252.7223,24.9334,253.0122,25.5904,253.403,26.2892,253.7016,26.9499,253.7333,27.5,253.9927,27.5,253.8305,36.0436,253.9104,44.5872,254.0015,53.1309,253.4578,61.6745,253.7333,70.2181,253.9727,70.3173,253.3602,70.8229,253.3847,71.5925,252.7532,72.0903,252.6352,72.8008,252.3909,73.459,252.4993,73.7207,251.7356,73.7103,251.1099,74.0331,250.4958,74.384,249.859,74.6798,249.15,74.8014,249.15,74.797,237.275,75.1305,225.4,74.1455,213.525,75.1273,201.65,75.4296,189.775,75.3108,177.9,75.5039,166.025,74.2479,154.15,74.0541,142.275,74.0894,130.4,74.734,118.525,74.8014,118.4963,74.7321,117.9765,74.7734,117.2031,74.2028,116.5304,73.8749,115.9657,73.808,115.2841,73.459,115.0488,73.3615,114.8325,72.7349,114.9762,72.2575,114.6324,71.5781,114.4694,70.9736,113.9417,70.2181,113.8188,70.2181,114.0636,61.6745,114.1672,53.1309,113.7613,44.5872,113.9051,36.0436,113.9417,27.5,113.9862,27.5184,114.4402,26.9471,114.4772,26.203,114.9104,25.6231,114.8202,24.8263,115.2841,24.2591,115.1851,24.0201,116.0059,24.1683,116.4757,23.4691,117.3031,23.6332,117.9071,23.2581,118.525,22.9167" style="stroke:#4D4D4D;stroke-width:1.1458333333333333;"></polygon><text fill="#2E2E2E" font-family="Segoe Print" font-size="22.9167" font-weight="bold" lengthAdjust="spacing" textLength="114.5832" x="126.5459" y="56.7926">业务用例图</text><g id="cluster_##3"><path d="M134.0625,94.2806 L134.0625,94.4947 L135.8958,93.8586 L137.7292,94.4775 L139.5625,94.6877 L141.3958,93.554 L143.2292,94.2806 L147.8125,98.8639 L147.7441,98.824 L149.0414,101.3951 L150.6834,104.1671 L152.565,107.079 L153.6209,109.5091 L155.8333,112.6139 L155.8333,114.3056 L167.1567,110.6881 L178.4801,112.0096 L189.8035,113.9338 L201.1269,112.3518 L212.4502,112.8224 L223.7736,112.5163 L235.097,113.1594 L246.4204,113.3446 L257.7438,114.4035 L269.0671,114.6644 L280.3905,114.6894 L291.7139,113.392 L303.0373,114.0304 L314.3606,114.7596 L325.684,110.4103 L337.0074,114.6872 L348.3308,111.708 L359.6542,112.6139 L364.2375,117.1973 L365.8686,117.1973 L362.7249,128.3282 L364.0282,139.4592 L366.5035,150.5901 L364.0886,161.7211 L364.5593,172.852 L365.2722,183.983 L365.5093,195.1139 L364.2256,206.2449 L365.1151,217.3758 L362.4884,228.5068 L365.1065,239.6377 L365.9125,250.7687 L365.5958,261.8996 L364.2375,273.0306 L359.6542,277.6139 L359.6542,279.4871 L348.3746,276.1379 L337.095,275.6211 L325.8154,275.7152 L314.5358,277.434 L303.2562,277.0134 L291.9767,279.696 L280.6971,277.0802 L269.4175,276.5657 L258.1379,278.3114 L246.8583,275.5764 L235.5787,276.0277 L224.2992,279.5968 L213.0196,278.9451 L201.74,279.8582 L190.4604,276.6307 L179.1808,278.5893 L167.9013,279.418 L156.6217,276.1705 L145.3421,277.321 L134.0625,277.6139 L129.4792,273.0306 L129.8641,273.0306 L131.4707,261.4195 L129.4664,249.8084 L130.8926,238.1973 L127.787,226.5862 L127.4098,214.975 L131.018,203.3639 L127.2885,191.7528 L131.0343,180.1417 L130.1105,168.5306 L128.6605,156.9195 L128.3982,145.3084 L130.8809,133.6973 L128.5645,122.0862 L131.2876,110.475 L129.4792,98.8639 L134.0625,94.2806 " fill="none" style="stroke:#333333;stroke-width:2.2916666666666665;"></path><path d="M129.4792,112.6139 L129.4792,112.721 L134.75,112.4029 L140.0208,112.7124 L145.2917,112.8175 L150.5625,112.2506 L155.8333,112.6139 " fill="none" style="stroke:#333333;stroke-width:2.2916666666666665;"></path></g><g id="elem_getObject"><polygon fill="none" points="325.0296,239.8098,323.4394,243.6781,317.3697,246.6215,310.4053,249.5539,304.656,252.9598,293.8087,254.9017,283.8991,256.9884,272.2681,258.3348,259.4533,258.9799,248.3241,259.6412,233.2293,258.6009,223.5969,258.4852,211.139,256.849,199.1524,254.5911,190.7534,252.5772,182.3145,249.756,176.0009,246.7588,170.7742,243.3167,167.7297,239.7921,166.0141,236.0052,166.8129,232.3774,169.7113,228.8847,175.3926,225.8298,181.4754,222.6442,189.0808,219.7714,201.6001,218.3096,209.279,215.5823,222.8884,214.804,233.2714,213.4606,247.9073,213.8063,259.454,213.8277,269.8799,214.1713,283.0973,216.0256,293.4203,217.8058,302.4229,219.993,310.3702,222.6731,317.7883,225.9874,321.9503,229.1237,326.6908,233.1354,325.8521,236.1888" style="stroke:#333333;stroke-width:2.2916666666666665;"></polygon><text fill="#2E2E2E" font-family="Segoe Print" font-size="13.75" lengthAdjust="spacing" textLength="82.5006" x="205.6062" y="238.8306">获取实体代码</text></g><g id="elem_getMock"><polygon fill="none" points="344.1276,153.8723,342.1488,157.7406,334.5964,160.684,325.9306,163.6164,318.7768,167.0223,305.2797,168.9642,292.9492,171.0509,278.4768,172.3973,262.5314,173.0424,248.6834,173.7037,229.901,172.6634,217.9155,172.5477,202.4143,170.9115,187.4994,168.6536,177.0486,166.6397,166.5481,163.8185,158.6921,160.8213,152.1886,157.3792,148.4003,153.8546,146.2656,150.0677,147.2595,146.4399,150.866,142.9472,157.9352,139.8923,165.504,136.7067,174.9673,133.8339,190.545,132.3721,200.0998,129.6448,217.0339,128.8665,229.9534,127.5231,248.1648,127.8688,262.5323,127.8902,275.5051,128.2338,291.9514,130.0881,304.7963,131.8683,315.9982,134.0555,325.8869,136.7356,335.1172,140.0499,340.296,143.1862,346.1946,147.1979,345.151,150.2513" style="stroke:#333333;stroke-width:2.2916666666666665;"></polygon><text fill="#2E2E2E" font-family="Segoe Print" font-size="13.75" lengthAdjust="spacing" textLength="110.0008" x="191.8569" y="152.8931">获取模拟数据代码</text></g><!--entity developer--><g id="elem_developer"><polygon fill="none" points="55.0509,157.8353,53.7072,159.6713,52.1179,162.3604,49.8449,164.1726,47.4564,165.1636,45.5519,165.2496,43.1041,164.0102,40.7945,163.2005,39.0415,161.5566,38.1219,159.6746,37.5766,158.176,37.0424,156.2187,36.1752,154.5343,36.8416,152.8898,37.4254,151.0883,39.6163,149.6635,41.1577,147.8148,43.0655,147.201,45.3336,146.6723,48.2422,146.9864,49.8353,147.7377,51.6875,148.0783,53.9395,150.3856,54.7246,152.8214,55.0657,154.4834,54.6793,157.2222" style="stroke:#333333;stroke-width:1.1458333333333333;"></polygon><path d="M45.8335,164.7723 L46.0476,164.7723 L45.4116,170.9598 L46.0304,177.1473 L46.2406,183.3348 L45.1069,189.5223 L45.8335,195.7098 M30.9377,173.9389 L30.9377,173.8598 L36.896,173.5045 L42.8544,173.5483 L48.8127,173.8695 L54.771,173.2348 L60.7294,173.9389 M45.8335,195.7098 L46.2597,196.0791 L42.3693,198.7268 L39.723,202.4528 L37.2285,206.3104 L33.8509,209.4025 L30.9377,212.8973 M45.8335,195.7098 L45.8861,195.7553 L48.7881,199.126 L51.9293,202.7039 L54.9551,206.1818 L58.201,209.8505 L60.7294,212.8973 " fill="none" style="stroke:#333333;stroke-width:1.1458333333333333;"></path><text fill="#2E2E2E" font-family="Segoe Print" font-size="13.75" lengthAdjust="spacing" textLength="55.0004" x="18.3333" y="233.6812">开发人员</text></g><!--link developer to getObject--><g id="link_developer_getObject"><path d="M79.349,200.8775 L79.4159,201.1915 L89.8785,202.5321 L100.7337,205.7136 L111.4611,208.2957 L121.768,208.9062 L132.6322,212.1297 L143.1826,213.8822 L153.8579,216.2201 L164.62,218.9649 L175.3033,221.3404 " fill="none" style="stroke:#333333;stroke-width:3.4375;"></path><polygon fill="#333333" points="182.0271,222.7743,182.0743,222.8393,180.1081,221.3196,178.4186,220.1807,176.639,218.9178,174.5631,217.2472,172.8973,216.141,172.8724,216.1248,173.466,217.14,174.1851,218.2367,174.9914,219.3899,175.497,220.3481,176.4239,221.5794,176.539,221.7569,175.2052,222.0828,174.2074,222.9267,173.2506,223.8338,172.0553,224.3732,170.9854,225.106,170.9908,225.1315,173.1912,224.6278,175.4162,224.2401,177.6293,223.7964,179.865,223.4596,182.0271,222.7743" style="stroke:#333333;stroke-width:3.4375;"></polygon></g><!--link developer to getMock--><g id="link_developer_getMock"><path d="M79.349,186.8754 L79.4177,187.1891 L90.1761,183.8556 L101.3373,182.3608 L112.3674,180.2673 L122.9661,176.2047 L134.1365,174.7519 L144.9851,171.8299 L155.9617,169.4925 L167.0497,167.6633 " fill="none" style="stroke:#333333;stroke-width:3.4375;"></path><polygon fill="#333333" points="173.7656,166.1931,173.7818,166.2717,171.5229,165.5837,169.3589,165.3566,167.1639,164.9795,164.8675,164.1086,162.7115,163.9211,162.6955,163.8961,163.7151,164.4834,164.8155,165.1967,165.972,165.9975,166.935,166.4965,168.169,167.4183,168.347,167.5324,167.2669,168.3799,166.7065,169.5605,166.2096,170.7818,165.3437,171.7666,164.6718,172.8757,164.6873,172.8967,166.4834,171.5294,168.3497,170.2576,170.1822,168.9398,172.0793,167.7099,173.7656,166.1931" style="stroke:#333333;stroke-width:3.4375;"></polygon></g><!--SRC=[jKzBJiCm45qpft2xJqEtBBW1uWokCoGcZcti2GWX9DXIGLNn4G89gDXqLR435UXfafHZa894-IxPFRrvlsb8BLGU8Kk8h5yAGyUtMh6a9E_a7fqmcb1JIvWij8fhoZCr1ndtX2wa13FqeQsfu0q7FaKIoNPhHW7uL6hB7SzOP2LhjnS_CHqkqjYPN4V2AECOEQvzVQfBeV6VsmAJav8QtpV-FSXOlf7ZBpy0ILB8YeUByc0mFHaMasvvEG5Gk4QC37CoJeX5qg4WQJG05rJdbKzxPQzVZCTb_vnnpoBSH6KiEW1RL_CO6Tk1XVf1mJsovilHVTaxAqTNnVDnyNWxlTblpcmnqcfdlOx-8Qs6WwfxNPtULOUZhuOL8rBO1O2FpY1OdWTzOsVgLm00]--></g></svg>