<svg xmlns="http://www.w3.org/2000/svg" xmlns:xlink="http://www.w3.org/1999/xlink" contentstyletype="text/css" height="376.9792px" preserveAspectRatio="none" style="width:286px;height:376px;background:#FFFFFF;" version="1.1" viewBox="0 0 286 376" width="286.4583px" zoomAndPan="magnify"><defs></defs><g><polygon fill="none" points="49.8438,22.9167,49.8438,23.1575,61.6077,22.4419,73.3716,23.1381,85.1355,23.3746,96.8993,22.0992,108.6632,22.8276,120.4271,22.428,132.191,22.4772,143.9549,22.8386,155.7187,22.1245,167.4826,23.551,179.2465,22.1945,191.0104,22.6901,202.7743,23.4116,214.5381,22.8184,226.302,22.9167,226.312,22.9407,226.9455,23.1739,227.6245,23.5166,228.2815,23.8065,228.9804,24.1973,229.5429,24.2591,229.7797,24.3572,230.0511,25.0066,230.1697,25.5927,230.512,26.2714,230.8647,26.9545,230.8854,27.5,230.6099,27.5,231.1445,36.0436,230.7721,44.5872,231.0892,53.1309,230.6963,61.6745,230.8854,70.2181,230.8612,70.2081,230.8786,70.9747,230.3312,71.5073,230.1171,72.178,229.9309,72.8603,229.5429,73.459,229.6038,73.6059,228.8942,73.7261,228.2885,74.0973,227.5147,74.0625,226.9918,74.6333,226.302,74.8014,226.302,75.4296,214.5381,75.3108,202.7743,75.5039,191.0104,74.2479,179.2465,74.0541,167.4826,74.0894,155.7187,74.734,143.9549,74.5762,132.191,75.5822,120.4271,74.6013,108.6632,74.4084,96.8993,75.063,85.1355,74.0373,73.3716,74.2066,61.6077,75.545,49.8438,74.8014,49.9075,74.9552,49.303,74.7921,48.5004,74.1509,47.9459,74.1086,47.3374,73.9358,46.6029,73.459,46.4362,73.39,46.3006,72.7968,46.1104,72.1811,46.0274,71.6097,45.5275,70.8657,45.2605,70.2181,45.4372,70.2181,45.049,61.6745,45.0018,53.1309,45.4528,44.5872,44.9866,36.0436,45.2605,27.5,45.4401,27.5744,45.6019,26.882,45.7029,26.1645,45.9411,25.5037,46.4963,24.9743,46.6029,24.2591,46.5592,24.1535,47.3376,24.1995,47.8185,23.5271,48.6377,23.6715,49.2664,23.356,49.8438,22.9167" style="stroke:#4D4D4D;stroke-width:1.1458333333333333;"></polygon><text fill="#2E2E2E" font-family="Segoe Print" font-size="22.9167" font-weight="bold" lengthAdjust="spacing" textLength="160.4165" x="57.8646" y="56.7926">审核系统用例图</text><g id="cluster_##3"><path d="M120.3125,94.2806 L120.3125,94.4947 L122.1458,93.8586 L123.9792,94.4775 L125.8125,94.6877 L127.6458,93.554 L129.4792,94.2806 L134.0625,98.8639 L133.9941,98.824 L135.2914,101.3951 L136.9334,104.1671 L138.815,107.079 L139.8709,109.5091 L142.0833,112.6139 L142.0833,114.3056 L153.5417,110.6881 L165,112.0096 L176.4583,113.9338 L187.9167,112.3518 L199.375,112.8224 L210.8333,112.5163 L222.2917,113.1594 L233.75,113.3446 L245.2083,114.4035 L256.6667,114.6644 L268.125,112.6139 L272.7083,117.1973 L274.7838,117.1973 L273.4864,128.7102 L274.1248,140.2231 L274.854,151.736 L270.5047,163.2489 L274.7816,174.7617 L271.8024,186.2746 L274.3394,197.7875 L271.1958,209.3004 L272.499,220.8133 L274.9743,232.3262 L272.5594,243.8391 L273.0301,255.352 L273.743,266.8649 L273.9802,278.3778 L272.6964,289.8907 L273.5859,301.4036 L270.9593,312.9165 L273.5773,324.4294 L274.3834,335.9423 L274.0666,347.4552 L272.7083,358.9681 L268.125,363.5514 L268.125,365.4246 L256.7548,362.0754 L245.3846,361.5586 L234.0144,361.6527 L222.6442,363.3715 L211.274,362.9509 L199.9038,365.6335 L188.5337,363.0177 L177.1635,362.5032 L165.7933,364.2489 L154.4231,361.5139 L143.0529,361.9652 L131.6827,365.5343 L120.3125,363.5514 L115.7292,358.9681 L117.0604,358.9681 L117.9734,347.6592 L114.7459,336.3503 L116.7045,325.0415 L117.5332,313.7326 L114.2857,302.4237 L115.4363,291.1148 L116.1141,279.806 L117.7207,268.4971 L115.7164,257.1882 L117.1426,245.8793 L114.037,234.5705 L113.6598,223.2616 L117.268,211.9527 L113.5385,200.6438 L117.2843,189.3349 L116.3605,178.0261 L114.9105,166.7172 L114.6482,155.4083 L117.1309,144.0994 L114.8145,132.7906 L117.5376,121.4817 L114.0402,110.1728 L115.7292,98.8639 L120.3125,94.2806 " fill="none" style="stroke:#333333;stroke-width:2.2916666666666665;"></path><path d="M115.7292,112.6139 L115.7292,112.721 L121,112.4029 L126.2708,112.7124 L131.5417,112.8175 L136.8125,112.2506 L142.0833,112.6139 " fill="none" style="stroke:#333333;stroke-width:2.2916666666666665;"></path></g><g id="elem_reviewTable"><polygon fill="none" points="243.7488,325.7473,242.7413,329.6156,238.8958,332.559,234.4834,335.4914,230.8409,338.8973,223.9685,340.8392,217.6902,342.9259,210.3212,344.2723,202.2023,344.9174,195.1513,345.5787,185.5878,344.5384,179.4851,344.4227,171.5923,342.7865,163.9981,340.5286,158.6768,338.5147,153.3303,335.6935,149.3302,332.6963,146.0188,329.2542,144.0899,325.7296,143.003,321.9427,143.5091,318.3149,145.3454,314.8222,148.9448,311.7673,152.7986,308.5817,157.6171,305.7089,165.5488,304.2471,170.4139,301.5198,179.0362,300.7415,185.6145,299.3981,194.8872,299.7438,202.2027,299.7652,208.8082,300.1088,217.1822,301.9631,223.7224,303.7433,229.4261,305.9305,234.4612,308.6106,239.161,311.9249,241.7978,315.0612,244.8013,319.0729,244.2699,322.1263" style="stroke:#333333;stroke-width:2.2916666666666665;"></polygon><text fill="#2E2E2E" font-family="Segoe Print" font-size="13.75" lengthAdjust="spacing" textLength="41.2503" x="173.5963" y="324.7681">审核表</text></g><g id="elem_reviewField"><polygon fill="none" points="253.2921,239.8098,252.0903,243.6781,247.5034,246.6215,242.2404,249.5539,237.8956,252.9598,229.6982,254.9017,222.2095,256.9884,213.4198,258.3348,203.7356,258.9799,195.3252,259.6412,183.918,258.6009,176.6387,258.4852,167.2242,256.849,158.1658,254.5911,151.8187,252.5772,145.4414,249.756,140.6701,246.7588,136.7203,243.3167,134.4195,239.7921,133.123,236.0052,133.7267,232.3774,135.917,228.8847,140.2104,225.8298,144.8072,222.6442,150.5546,219.7714,160.0156,218.3096,165.8186,215.5823,176.1033,214.804,183.9498,213.4606,195.0102,213.8063,203.7361,213.8277,211.615,214.1713,221.6035,216.0256,229.4047,217.8058,236.208,219.993,242.2138,222.6731,247.8197,225.9874,250.965,229.1237,254.5474,233.1354,253.9136,236.1888" style="stroke:#333333;stroke-width:2.2916666666666665;"></polygon><text fill="#2E2E2E" font-family="Segoe Print" font-size="13.75" lengthAdjust="spacing" textLength="55.0004" x="166.7159" y="238.8306">审核字段</text></g><g id="elem_reviewDict"><polygon fill="none" points="253.2921,153.8723,252.0903,157.7406,247.5034,160.684,242.2404,163.6164,237.8956,167.0223,229.6982,168.9642,222.2095,171.0509,213.4198,172.3973,203.7356,173.0424,195.3252,173.7037,183.918,172.6634,176.6387,172.5477,167.2242,170.9115,158.1658,168.6536,151.8187,166.6397,145.4414,163.8185,140.6701,160.8213,136.7203,157.3792,134.4195,153.8546,133.123,150.0677,133.7267,146.4399,135.917,142.9472,140.2104,139.8923,144.8072,136.7067,150.5546,133.8339,160.0156,132.3721,165.8186,129.6448,176.1033,128.8665,183.9498,127.5231,195.0102,127.8688,203.7361,127.8902,211.615,128.2338,221.6035,130.0881,229.4047,131.8683,236.208,134.0555,242.2138,136.7356,247.8197,140.0499,250.965,143.1862,254.5474,147.1979,253.9136,150.2513" style="stroke:#333333;stroke-width:2.2916666666666665;"></polygon><text fill="#2E2E2E" font-family="Segoe Print" font-size="13.75" lengthAdjust="spacing" textLength="55.0004" x="166.7159" y="152.8931">审核词库</text></g><!--entity admin--><g id="elem_admin"><polygon fill="none" points="48.1758,200.2311,46.8321,202.0671,45.2428,204.7562,42.9698,206.5684,40.5813,207.5594,38.6768,207.6455,36.2291,206.4061,33.9195,205.5964,32.1664,203.9524,31.2469,202.0704,30.7015,200.5719,30.1673,198.6145,29.3001,196.9302,29.9665,195.2856,30.5503,193.4841,32.7412,192.0593,34.2826,190.2107,36.1905,189.5968,38.4586,189.0681,41.3672,189.3822,42.9602,190.1335,44.8124,190.4741,47.0645,192.7814,47.8495,195.2172,48.1906,196.8792,47.8043,199.618" style="stroke:#333333;stroke-width:1.1458333333333333;"></polygon><path d="M38.9585,207.1681 L39.1726,207.1681 L38.5365,213.3556 L39.1554,219.5431 L39.3656,225.7306 L38.2319,231.9181 L38.9585,238.1056 M24.0627,216.3348 L24.0627,216.2556 L30.021,215.9004 L35.9793,215.9442 L41.9377,216.2653 L47.896,215.6306 L53.8543,216.3348 M38.9585,238.1056 L39.3846,238.4749 L35.4942,241.1227 L32.8479,244.8487 L30.3535,248.7062 L26.9758,251.7984 L24.0627,255.2931 M38.9585,238.1056 L39.011,238.1511 L41.9131,241.5218 L45.0542,245.0997 L48.08,248.5776 L51.326,252.2463 L53.8543,255.2931 " fill="none" style="stroke:#333333;stroke-width:1.1458333333333333;"></path><text fill="#2E2E2E" font-family="Segoe Print" font-size="13.75" lengthAdjust="spacing" textLength="41.2503" x="18.3333" y="276.077">管理员</text></g><!--link admin to reviewTable--><g id="link_admin_reviewTable"><path d="M65.6104,253.4941 L65.668,253.5844 L69.4736,255.8523 L73.6166,258.6492 L77.6497,261.2738 L81.3215,263.3319 L85.4935,266.1742 L85.4729,266.1404 L87.4939,267.2784 L89.6189,268.5867 L91.8161,270.0134 L93.7643,271.0321 L96.0613,272.6222 L96.2036,272.8656 L97.9996,273.5726 L100.211,274.9903 L102.473,276.4947 L104.4402,277.4945 L106.5625,278.7598 L106.5794,278.7901 L108.954,280.0856 L111.4057,281.5192 L113.8201,282.8861 L116.3056,284.3802 L118.5596,285.4598 L118.7211,285.761 L120.9642,286.967 L123.1032,287.9787 L125.3946,289.2748 L127.6933,290.5842 L129.7654,291.4713 L129.5973,291.1448 L132.135,292.9168 L134.1193,293.6136 L136.5243,295.1279 L138.496,295.8003 L140.8229,297.1627 L140.8074,297.1315 L143.3014,298.6489 L145.4328,299.4364 L147.7782,300.6546 L150.1415,301.9089 L152.3752,302.9024 " fill="none" style="stroke:#333333;stroke-width:3.4375;"></path><polygon fill="#333333" points="158.549,305.9275,158.6105,305.979,156.9788,304.0952,155.708,302.5135,154.3197,300.8334,152.5449,298.8299,151.3051,297.2741,151.277,297.2645,151.5708,298.4479,152.0061,299.6797,152.5399,300.9452,152.7345,302.0946,153.4042,303.4066,153.4727,303.6067,152.0997,303.5987,150.9267,304.1748,149.7781,304.8222,148.4876,305.0549,147.2717,305.5057,147.2727,305.5318,149.5267,305.5779,151.7851,305.7426,154.0415,305.8501,156.3019,306.0667,158.549,305.9275" style="stroke:#333333;stroke-width:3.4375;"></polygon></g><!--link admin to reviewField--><g id="link_admin_reviewField"><path d="M65.7021,236.3639 L65.7021,236.685 L77.9167,235.7309 L90.1313,236.6592 L102.3458,236.9746 L114.5604,235.274 L126.775,236.3639 " fill="none" style="stroke:#333333;stroke-width:3.4375;"></path><polygon fill="#333333" points="133.65,236.3639,133.6826,236.4373,131.5232,235.3027,129.555,234.5981,127.5245,233.7534,125.2893,232.4483,123.3375,231.7806,123.3165,231.7596,124.139,232.5821,125.0673,233.5104,126.0691,234.5122,126.8174,235.2605,127.9208,236.3639,128.0704,236.5135,126.8339,237.1104,126.0341,238.1439,125.2875,239.2306,124.231,240.0074,123.3375,240.9473,123.3481,240.9711,125.395,240.0194,127.4902,239.1762,129.5621,238.2807,131.6784,237.485,133.65,236.3639" style="stroke:#333333;stroke-width:3.4375;"></polygon></g><!--link admin to reviewDict--><g id="link_admin_reviewDict"><path d="M65.6104,219.2337 L65.668,219.324 L69.4736,216.5198 L73.6166,214.2447 L77.6497,211.7973 L81.3215,208.7833 L85.4935,206.5536 L85.4729,206.5199 L87.4939,205.0786 L89.6189,203.8077 L91.8161,202.6552 L93.7643,201.0947 L96.0613,200.1056 L96.2036,200.3491 L97.9996,198.601 L100.211,197.5637 L102.473,196.613 L104.4402,195.1579 L106.5625,193.9681 L106.5795,193.9984 L108.7938,192.7018 L111.0854,191.5432 L113.3398,190.318 L115.6652,189.2199 L117.7589,187.7074 L117.9209,188.0083 L120.001,186.8931 L121.9766,185.5837 L124.1052,184.5584 L126.2409,183.5465 L128.1495,182.1127 L127.9807,181.7865 L130.3709,181.3526 L132.2054,179.8446 L134.4623,179.1532 L136.2842,177.6209 L138.4627,176.7778 L138.4471,176.7466 L140.8244,176.0195 L142.8373,174.5633 L145.0653,173.5373 L147.3113,172.5475 L149.4271,171.2971 " fill="none" style="stroke:#333333;stroke-width:3.4375;"></path><polygon fill="#333333" points="155.5927,168.2556,155.5959,168.3358,153.3312,168.1878,151.0852,168.5101,148.8332,168.6792,146.5609,168.3448,144.3166,168.7074,144.3071,168.6793,145.4919,168.9697,146.7248,169.4018,147.9911,169.9324,149.1422,170.1235,150.4547,170.7902,150.6549,170.8581,149.8102,171.9404,149.55,173.2211,149.3612,174.526,148.7574,175.6901,148.3719,176.9282,148.3919,176.9449,149.8067,175.1859,151.3126,173.5028,152.7746,171.7831,154.3205,170.1333,155.5927,168.2556" style="stroke:#333333;stroke-width:3.4375;"></polygon></g><!--SRC=[jOynJWCn44LhV0ed_MP9Iq65E04Nc7Y7NIjUszXZ8eHeQH0I22IGA21T6aA1a12HSffibcFW9GKR1KgwqPy__x_fI2rKo90NHDRlfAc3KI-NL8H1yEY4qOIQUiAKgLMWAPJgPoZ14xgK2YpHfpPAoVUS-26IA4vwZSIO7qfjmK79Cojvlx_TKWOWXhapGMV2AECuET0-hc8fw_mdMs82AQbnnVWtaB5m5F2N7nX9KiYhwNZvz5w_pkhPOtqxMSmlgeSvOmeFYPFXJkO5yKmw52IDPWm4nTHwEgwlpglhUmwUGrRAkB6n6NBa_9HjnVy4UEJTLVpdUD9jd0wF9OuEOA1mmrCztosdRotRlaILRKQzN5OVDotRdXJ4pbWaQp2IPBTTigwj4jUrvlmB]--></g></svg>