<svg xmlns="http://www.w3.org/2000/svg" xmlns:xlink="http://www.w3.org/1999/xlink" contentstyletype="text/css" height="501.875px" preserveAspectRatio="none" style="width:446px;height:501px;background:#FFFFFF;" version="1.1" viewBox="0 0 446 501" width="446.875px" zoomAndPan="magnify"><defs></defs><g><polygon fill="none" points="153.1006,22.9167,153.1006,23.1575,164.9756,22.4419,176.8505,23.1381,188.7255,23.3746,200.6005,22.0992,212.4755,22.8276,224.3505,22.428,236.2255,22.4772,248.1005,22.8386,259.9755,22.1245,271.8505,23.551,283.7255,22.9167,283.6334,22.6943,284.3448,23.1154,285.085,23.6061,285.6575,23.6919,286.3282,24.0147,286.9664,24.2591,286.9551,24.2544,287.2979,24.9334,287.5877,25.5904,287.9785,26.2892,288.2771,26.9499,288.3088,27.5,288.5682,27.5,288.4061,36.0436,288.4859,44.5872,288.577,53.1309,288.0334,61.6745,288.3088,70.2181,288.5482,70.3173,287.9357,70.8229,287.9602,71.5925,287.3287,72.0903,287.2107,72.8008,286.9664,73.459,287.0748,73.7207,286.3111,73.7103,285.6854,74.0331,285.0713,74.384,284.4345,74.6798,283.7255,74.8014,283.7255,74.797,271.8505,75.1305,259.9755,74.1455,248.1005,75.1273,236.2255,75.4296,224.3505,75.3108,212.4755,75.5039,200.6005,74.2479,188.7255,74.0541,176.8505,74.0894,164.9756,74.734,153.1006,74.8014,153.0718,74.7321,152.552,74.7734,151.7787,74.2028,151.1059,73.8749,150.5412,73.808,149.8597,73.459,149.6244,73.3615,149.408,72.7349,149.5517,72.2575,149.2079,71.5781,149.0449,70.9736,148.5172,70.2181,148.3943,70.2181,148.6391,61.6745,148.7427,53.1309,148.3368,44.5872,148.4806,36.0436,148.5172,27.5,148.5617,27.5184,149.0157,26.9471,149.0527,26.203,149.4859,25.6231,149.3958,24.8263,149.8597,24.2591,149.7607,24.0201,150.5814,24.1683,151.0512,23.4691,151.8786,23.6332,152.4826,23.2581,153.1006,22.9167" style="stroke:#4D4D4D;stroke-width:1.1458333333333333;"></polygon><text fill="#2E2E2E" font-family="Segoe Print" font-size="22.9167" font-weight="bold" lengthAdjust="spacing" textLength="114.5832" x="161.1214" y="56.7926">系统用例图</text><g id="cluster_##3"><path d="M134.0625,94.2806 L134.0625,94.4947 L135.8958,93.8586 L137.7292,94.4775 L139.5625,94.6877 L141.3958,93.554 L143.2292,94.2806 L147.8125,98.8639 L147.7441,98.824 L149.0414,101.3951 L150.6834,104.1671 L152.565,107.079 L153.6209,109.5091 L155.8333,112.6139 L155.8333,114.3056 L167.2072,110.6881 L178.581,112.0096 L189.9548,113.9338 L201.3286,112.3518 L212.7025,112.8224 L224.0763,112.5163 L235.4501,113.1594 L246.824,113.3446 L258.1978,114.4035 L269.5716,114.6644 L280.9454,114.6894 L292.3193,113.392 L303.6931,114.0304 L315.0669,114.7596 L326.4408,110.4103 L337.8146,114.6872 L349.1884,111.708 L360.5622,114.245 L371.9361,111.1014 L383.3099,112.4046 L394.6837,114.8799 L406.0576,112.465 L417.4314,112.9357 L428.8052,112.6139 L433.3885,117.1973 L434.4232,117.1973 L434.6604,128.6556 L433.3766,140.1139 L434.2661,151.5723 L431.6395,163.0306 L434.2575,174.4889 L435.0636,185.9473 L434.7468,197.4056 L435.2617,208.8639 L431.9125,220.3223 L431.3958,231.7806 L431.4898,243.2389 L433.2086,254.6973 L432.788,266.1556 L435.4706,277.6139 L432.8548,289.0723 L432.3403,300.5306 L434.086,311.9889 L431.351,323.4473 L431.8023,334.9056 L435.3714,346.3639 L434.7197,357.8223 L435.6328,369.2806 L432.4053,380.7389 L434.3639,392.1973 L435.1926,403.6556 L431.9451,415.1139 L433.0956,426.5723 L433.7735,438.0306 L435.38,449.4889 L433.3757,460.9473 L434.8019,472.4056 L433.3885,483.8639 L428.8052,488.4473 L428.8052,486.7551 L417.469,486.3779 L406.1327,489.9861 L394.7964,486.2566 L383.4602,490.0024 L372.1239,489.0786 L360.7877,487.6286 L349.4514,487.3663 L338.1151,489.849 L326.7789,487.5326 L315.4426,490.2557 L304.1064,486.7583 L292.7701,490.3338 L281.4339,489.9271 L270.0976,489.1958 L258.7613,488.5915 L247.4251,490.6675 L236.0888,490.3221 L224.7526,488.9644 L213.4163,489.2667 L202.08,488.0492 L190.7438,490.6364 L179.4075,488.9205 L168.0713,488.9746 L156.735,486.5884 L145.3988,487.2091 L134.0625,488.4473 L129.4792,483.8639 L131.1009,483.8639 L130.7923,472.5404 L129.348,461.2169 L128.4948,449.8933 L128.8102,438.5698 L127.3825,427.2463 L130.7464,415.9228 L131.7389,404.5992 L131.0876,393.2757 L131.6026,381.9522 L129.0614,370.6286 L129.7457,359.3051 L128.2948,347.9816 L130.3471,336.658 L130.2332,325.3345 L131.167,314.011 L128.7774,302.6875 L129.0685,291.3639 L130.8342,280.0404 L131.2127,268.7169 L127.9131,257.3933 L128.8867,246.0698 L129.9353,234.7463 L127.6127,223.4228 L130.559,212.0992 L130.2675,200.7757 L129.1713,189.4522 L129.9138,178.1286 L131.7057,166.8051 L128.5232,155.4816 L130.4416,144.158 L130.352,132.8345 L129.8329,121.511 L129.9098,110.1875 L129.4792,98.8639 L134.0625,94.2806 " fill="none" style="stroke:#333333;stroke-width:2.2916666666666665;"></path><path d="M129.4792,112.6139 L129.4792,112.721 L134.75,112.4029 L140.0208,112.7124 L145.2917,112.8175 L150.5625,112.2506 L155.8333,112.6139 " fill="none" style="stroke:#333333;stroke-width:2.2916666666666665;"></path></g><g id="elem_viewTable"><polygon fill="none" points="350.0562,450.6431,348.6601,454.5114,343.3319,457.4548,337.2181,460.3873,332.1711,463.7931,322.6488,465.7351,313.9496,467.8218,303.7393,469.1681,292.4897,469.8133,282.7199,470.4745,269.4689,469.4342,261.0131,469.3186,250.0769,467.6823,239.5544,465.4244,232.1814,463.4106,224.7733,460.5893,219.2308,457.5921,214.6425,454.1501,211.9699,450.6255,210.4639,446.8385,211.1651,443.2108,213.7095,439.7181,218.6968,436.6632,224.0366,433.4776,230.713,430.6047,241.7031,429.1429,248.4441,426.4156,260.3911,425.6374,269.5059,424.2939,282.3541,424.6396,292.4904,424.6611,301.6428,425.0046,313.2457,426.8589,322.3078,428.6391,330.2108,430.8263,337.1873,433.5064,343.6993,436.8207,347.3529,439.957,351.5144,443.9687,350.7782,447.0222" style="stroke:#333333;stroke-width:2.2916666666666665;"></polygon><text fill="#2E2E2E" font-family="Segoe Print" font-size="13.75" lengthAdjust="spacing" textLength="68.7505" x="247.0564" y="449.664">查看公开表</text></g><g id="elem_viewField"><polygon fill="none" points="359.5994,364.7056,358.0092,368.5739,351.9395,371.5173,344.9751,374.4498,339.2258,377.8556,328.3785,379.7976,318.4689,381.8843,306.8379,383.2306,294.0231,383.8758,282.8939,384.537,267.7991,383.4967,258.1667,383.3811,245.7088,381.7448,233.7222,379.4869,225.3232,377.4731,216.8843,374.6518,210.5707,371.6546,205.344,368.2126,202.2995,364.688,200.5839,360.901,201.3827,357.2733,204.2811,353.7806,209.9624,350.7257,216.0452,347.5401,223.6506,344.6672,236.1699,343.2054,243.8488,340.4781,257.4582,339.6999,267.8412,338.3564,282.4771,338.7021,294.0238,338.7236,304.4497,339.0671,317.6671,340.9214,327.9901,342.7016,336.9927,344.8888,344.9399,347.5689,352.3581,350.8832,356.52,354.0195,361.2606,358.0312,360.4219,361.0847" style="stroke:#333333;stroke-width:2.2916666666666665;"></polygon><text fill="#2E2E2E" font-family="Segoe Print" font-size="13.75" lengthAdjust="spacing" textLength="82.5006" x="240.176" y="363.7265">查看公开字段</text></g><g id="elem_viewDict"><polygon fill="none" points="359.5994,278.7681,358.0092,282.6364,351.9395,285.5798,344.9751,288.5123,339.2258,291.9181,328.3785,293.8601,318.4689,295.9468,306.8379,297.2931,294.0231,297.9383,282.8939,298.5995,267.7991,297.5592,258.1667,297.4436,245.7088,295.8073,233.7222,293.5494,225.3232,291.5356,216.8843,288.7143,210.5707,285.7171,205.344,282.2751,202.2995,278.7505,200.5839,274.9635,201.3827,271.3358,204.2811,267.8431,209.9624,264.7882,216.0452,261.6026,223.6506,258.7297,236.1699,257.2679,243.8488,254.5406,257.4582,253.7624,267.8412,252.4189,282.4771,252.7646,294.0238,252.7861,304.4497,253.1296,317.6671,254.9839,327.9901,256.7641,336.9927,258.9513,344.9399,261.6314,352.3581,264.9457,356.52,268.082,361.2606,272.0937,360.4219,275.1472" style="stroke:#333333;stroke-width:2.2916666666666665;"></polygon><text fill="#2E2E2E" font-family="Segoe Print" font-size="13.75" lengthAdjust="spacing" textLength="82.5006" x="240.176" y="277.789">查看公开词库</text></g><g id="elem_getCode"><polygon fill="none" points="412.6586,176.2788,409.9891,183.4337,399.8002,188.8779,388.1093,194.3017,378.4582,200.6012,360.2494,204.1931,343.6145,208.0527,324.0899,210.543,302.5782,211.7361,283.8961,212.9593,258.557,211.0351,242.3875,210.8212,221.475,207.7948,201.3535,203.6185,187.2546,199.8937,173.0885,194.6754,162.4901,189.1318,153.7162,182.7653,148.6055,176.2462,145.7256,169.2418,147.0665,162.5318,151.932,156.0717,161.4689,150.4213,171.6798,144.5292,184.4467,139.2155,205.4624,136.5117,218.3527,131.4674,241.1982,130.0278,258.6277,127.543,283.1964,128.1824,302.5794,128.2221,320.0809,128.8575,342.2685,132.2873,359.5973,135.58,374.7096,139.6254,388.0504,144.5826,400.5028,150.7128,407.4894,156.5137,415.4472,163.9337,414.0393,169.5815" style="stroke:#333333;stroke-width:2.2916666666666665;"></polygon><text fill="#2E2E2E" font-family="Segoe Print" font-size="13.75" lengthAdjust="spacing" textLength="158.8976" x="201.9838" y="158.6385">获取SQL、JSON、Java等</text><text fill="#2E2E2E" font-family="Segoe Print" font-size="13.75" lengthAdjust="spacing" textLength="123.7509" x="219.5571" y="186.1026">实体代码和模拟数据</text></g><!--entity developer--><g id="elem_developer"><polygon fill="none" points="55.0509,282.7311,53.7072,284.5671,52.1179,287.2562,49.8449,289.0684,47.4564,290.0594,45.5519,290.1455,43.1041,288.9061,40.7945,288.0964,39.0415,286.4524,38.1219,284.5704,37.5766,283.0719,37.0424,281.1145,36.1752,279.4302,36.8416,277.7856,37.4254,275.9841,39.6163,274.5593,41.1577,272.7107,43.0655,272.0968,45.3336,271.5681,48.2422,271.8822,49.8353,272.6335,51.6875,272.9741,53.9395,275.2814,54.7246,277.7172,55.0657,279.3792,54.6793,282.118" style="stroke:#333333;stroke-width:1.1458333333333333;"></polygon><path d="M45.8335,289.6681 L46.0476,289.6681 L45.4116,295.8556 L46.0304,302.0431 L46.2406,308.2306 L45.1069,314.4181 L45.8335,320.6056 M30.9377,298.8348 L30.9377,298.7556 L36.896,298.4004 L42.8544,298.4442 L48.8127,298.7653 L54.771,298.1306 L60.7294,298.8348 M45.8335,320.6056 L46.2597,320.9749 L42.3693,323.6227 L39.723,327.3487 L37.2285,331.2062 L33.8509,334.2984 L30.9377,337.7931 M45.8335,320.6056 L45.8861,320.6511 L48.7881,324.0218 L51.9293,327.5997 L54.9551,331.0776 L58.201,334.7463 L60.7294,337.7931 " fill="none" style="stroke:#333333;stroke-width:1.1458333333333333;"></path><text fill="#2E2E2E" font-family="Segoe Print" font-size="13.75" lengthAdjust="spacing" textLength="55.0004" x="18.3333" y="358.577">开发人员</text></g><!--link developer to viewTable--><g id="link_developer_viewTable"><path d="M79.3146,366.0493 L79.395,366.12 L80.9735,367.9793 L83.0234,370.2526 L84.9198,372.3912 L86.3114,374.0862 L88.4018,376.3951 L88.3737,376.3673 L90.2326,378.2412 L92.2332,380.2558 L94.3322,382.3681 L96.092,384.1436 L98.3268,386.3908 L98.5113,386.604 L100.2505,387.9933 L102.5283,390.0052 L104.8718,392.093 L106.833,393.7389 L108.9952,395.6172 L109.0154,395.6456 L111.2493,397.2116 L113.5748,398.9067 L115.8561,400.5395 L118.2218,402.2911 L120.3125,403.6556 L120.4862,403.9499 L122.6517,405.2303 L124.7051,406.3208 L126.9225,407.6892 L129.1476,409.0706 L131.1292,410.0394 L130.9606,409.7131 L133.4662,411.4717 L135.4167,412.1559 L137.7892,413.6569 L139.7271,414.3167 L142.0212,415.666 L142.0069,415.6342 L144.3707,416.9977 L146.4001,417.6179 L148.6269,418.6768 L150.8702,419.7724 L152.994,420.6025 L153.0711,420.7999 L155.2051,421.4633 L157.4709,422.4641 L159.5236,422.919 L161.894,424.1882 L164.0532,424.9159 L164.1424,425.1805 L166.3557,425.882 L168.6133,426.7148 L170.6653,426.9373 L172.868,427.6072 L175.2042,428.6735 L175.1159,428.3696 L177.4455,429.2984 L179.6757,429.8849 L182.0501,430.968 L184.1781,431.2031 L186.4526,431.9422 L186.4101,431.7728 L188.7511,432.6244 L190.9105,432.7517 L193.199,433.394 L195.614,434.5404 L197.8038,434.7893 L197.851,435.0061 L200.1753,435.6533 L202.3529,435.6261 L204.7142,436.4436 L207.0354,437.077 L209.2634,437.2817 " fill="none" style="stroke:#333333;stroke-width:3.4375;"></path><polygon fill="#333333" points="216.001,438.6493,216.0476,438.7148,214.0704,437.2118,212.366,436.0922,210.5728,434.8478,208.4873,433.1928,206.8064,432.1062,206.7817,432.0898,207.3866,433.0969,208.1163,434.1867,208.9327,435.3339,209.4502,436.2831,210.3864,437.5097,210.5032,437.6859,209.1727,438.025,208.1833,438.8787,207.2354,439.7952,206.0455,440.3463,204.9829,441.0896,204.9885,441.1151,207.1839,440.5897,209.4049,440.1801,211.6135,439.7146,213.8458,439.3558,216.001,438.6493" style="stroke:#333333;stroke-width:3.4375;"></polygon></g><!--link developer to viewField--><g id="link_developer_viewField"><path d="M79.4177,324.7535 L79.4751,325.0695 L90.8469,326.2284 L102.5552,329.2394 L114.154,331.6473 L125.3922,332.0719 L137.1082,335.1251 L148.5553,336.6985 L160.1094,338.8608 L171.7379,341.4325 L183.11,342.5934 L194.9925,346.5626 L206.3836,347.828 " fill="none" style="stroke:#333333;stroke-width:3.4375;"></path><polygon fill="#333333" points="213.1479,349.0566,213.1931,349.123,211.1934,347.6554,209.4585,346.5767,207.6374,345.3713,205.5326,343.7495,203.8205,342.7042,203.7961,342.6873,204.4247,343.6772,205.1763,344.7522,206.0134,345.8865,206.5558,346.8167,207.511,348.0328,207.6314,348.2067,206.3082,348.573,205.3365,349.4469,204.4077,350.3827,203.2294,350.9583,202.1824,351.7233,202.1885,351.7486,204.3726,351.1781,206.5847,350.7229,208.7833,350.2121,211.0077,349.8073,213.1479,349.0566" style="stroke:#333333;stroke-width:3.4375;"></polygon></g><!--link developer to viewDict--><g id="link_developer_viewDict"><path d="M79.4177,312.8139 L79.4766,313.1296 L90.8882,310.0292 L102.6452,308.7793 L114.2897,306.9268 L125.5643,303.0927 L137.3291,301.8849 L148.818,299.1986 L160.4167,297.1007 L172.0917,295.4119 L183.5037,292.3134 L195.4393,292.0208 L206.8708,289.0268 " fill="none" style="stroke:#333333;stroke-width:3.4375;"></path><polygon fill="#333333" points="213.6292,287.766,213.6478,287.8441,211.3969,287.0892,209.255,286.7921,207.0776,286.3459,204.7835,285.4095,202.651,285.1516,202.6342,285.1272,203.6281,285.7503,204.7067,286.4969,205.844,287.3292,206.7786,287.8659,207.9972,288.8167,208.1716,288.9363,207.0656,289.7498,206.4688,290.9124,205.9342,292.1177,205.0381,293.0751,204.3321,294.1628,204.3469,294.1843,206.1846,292.8734,208.0896,291.6603,209.9621,290.4,211.8966,289.2297,213.6292,287.766" style="stroke:#333333;stroke-width:3.4375;"></polygon></g><!--link developer to getCode--><g id="link_developer_getCode"><path d="M79.5208,272.4921 L79.6019,272.5619 L81.1893,270.2314 L83.2522,268.3103 L85.1602,266.2559 L86.5591,263.7631 L88.6628,261.8772 L88.6342,261.8498 L90.49,259.647 L92.4902,257.5819 L94.5908,255.6125 L96.3455,253.3132 L98.5846,251.476 L98.776,251.6831 L100.4844,249.2834 L102.7514,247.4883 L105.0866,245.7669 L107.0253,243.6163 L109.1725,241.6915 L109.194,241.7188 L111.3904,239.9257 L113.6847,238.2569 L115.9318,236.5282 L118.2689,234.9139 L120.3125,232.9264 L120.5035,233.2098 L123.2818,231.3429 L125.9369,229.2931 L128.7723,227.5109 L131.6162,225.7413 L134.1923,223.5743 L134.0063,223.2576 L137.083,222.2771 L139.5472,220.2539 L142.4771,219.0234 L144.9274,216.9765 L147.7708,215.5987 L147.7551,215.5676 L150.7629,214.515 L153.4041,212.7344 L156.2616,211.3834 L159.1373,210.0685 L161.882,208.4934 L161.9666,208.6877 L164.9769,207.1432 L168.1317,205.9307 L171.0525,204.181 L174.3224,203.2327 L177.3603,201.7515 " fill="none" style="stroke:#333333;stroke-width:3.4375;"></path><polygon fill="#333333" points="183.7229,199.1473,183.7253,199.2275,181.4622,198.922,179.213,199.0869,176.9594,199.0986,174.6907,198.6066,172.4428,198.8119,172.4313,198.7845,173.5754,199.1628,174.7773,199.679,176.0195,200.2912,177.123,200.5728,178.4207,201.3175,178.6157,201.3992,177.6976,202.42,177.3488,203.6795,177.0695,204.968,176.386,206.0872,175.9151,207.2954,175.9339,207.3135,177.4679,205.6574,179.0875,204.0833,180.6657,202.4697,182.3229,200.9317,183.7229,199.1473" style="stroke:#333333;stroke-width:3.4375;"></polygon></g><!--SRC=[jOzFQnD16CRFdKynoNsppTM35qiFKXI9Ho-JsRUxGsPdrfbt4qI4zk11OWsrzW-qc9PIoC56eOYGQBwCcTry33U99A6OewTv-StpFk_pb8JYCWs0HeY9VU3xXhKgeS0ehQSM3DSAGM65wzXF95EOnd8vnCmY61yZYC7wIO6ysUpP1Y2FNbMcY13R42fXXiKqI0IjLZTNI9tnHcXqgWAkfJOK3LEs-2gEajB_pERf5ALGCC-uFf1EsCiK_j61e409DByRviDk_gat7hNT-OWG2Rj8KLCZmWXf80nm55eHmZWMVkxddkiSZWS3TtX6cQK1D47g10mXIN6QXK3fQx9H5EJC0YrdtPlyektUVYaM9rUzydIdAQ3rdDKbhD6vszEi_tqXtHOWWtMMNm_Su6WXtH8SLvIJ3pzSvwJsREVttlxZsjCdquSrMNxxxeLo_S_ZNqVZuNL-kUy-lizwLrcxcnr_omxwCxiGy94EWBmXX2nAUjx3PVZxT9xpFfr5MeL_ZVy0]--></g></svg>